<?xml version="1.0" encoding="utf-8"?>
<!-- Generator: Adobe Illustrator 24.0.1, SVG Export Plug-In . SVG Version: 6.00 Build 0)  -->
<svg version="1.1" id="Capa_1" xmlns="http://www.w3.org/2000/svg" xmlns:xlink="http://www.w3.org/1999/xlink" x="0px" y="0px"
	 viewBox="0 0 257 53.7" style="enable-background:new 0 0 257 53.7;" xml:space="preserve">
<style type="text/css">
	.st0{fill:#FFFFFF;}
</style>
<g>
	<path class="st0" d="M22.9,37.7c-0.1,0.6-0.4,1.2-0.9,1.9c-0.5,0.7-0.9,1.1-1.3,1.2c-0.1,0-0.3,0-0.6-0.2c-0.3-0.2-0.5-0.2-0.7-0.2
		c-0.1,0-0.1,0-0.2,0.1c-1.1,0.3-2.1,0.7-3.2,1.2c-2.6,1.2-4.9,2.7-7.1,4.5c-3.5-1.4-5.4-2.2-5.7-2.3C1.1,42.9,0,42.2,0,41.8V2.7
		c0-0.2,0.4-0.6,1.2-1C2,1.2,2.6,1,3,1c0.4,0,1.2,0.3,2.5,0.8c1.2,0.5,2.3,0.8,3.1,0.8c1,0,2.4-0.5,4.1-1.4c1.5-0.9,2.5-1.3,2.9-1.1
		c0.8,0.3,2.1,1.2,3.7,2.7c1.6,1.5,2.5,2.6,2.7,3.3c0.1,0.3-0.3,0.9-1,1.6c-0.7,0.8-1.3,1.1-1.7,1.1c-0.4,0-0.7-0.1-0.8-0.2
		c-0.2-0.1-0.3-0.1-0.4-0.1c-1.2,0.3-2.4,0.6-3.5,1c-2.6,0.9-4.5,1.9-5.7,3V21c1.2-0.6,2.8-1.3,4.7-1.9c0.6-0.1,1.7,0.7,3.5,2.3
		c1.8,1.6,2.7,2.7,2.7,3.4c0,0.4-0.2,0.8-0.7,1.4c-0.5,0.5-1,0.8-1.4,1c-0.3,0-1,0-1.8,0.1c-1.3,0.2-3.6,1.4-7,3.3V36
		c1-0.6,2.5-1.4,4.2-2.2c1.8-0.8,2.9-1.3,3.3-1.3c0.5,0,1.7,0.8,3.7,2.3C22,36.3,22.9,37.3,22.9,37.7z"/>
	<path class="st0" d="M45.5,16.3c0.1,0.6-0.1,1-0.6,1.4c-0.4,0.2-0.8,0.4-1.2,0.7c-2.2,3.3-5.1,7.8-8.9,13.5c0,5.5,0,8.4,0.1,8.5
		c0,0.2,0.2,0.6,0.4,1.3c0.2,0.7,0.3,1.3,0.3,1.7c0,0.7-0.3,1.1-0.9,1.4c-0.4,0.2-0.9,0.3-1.6,0.3c-1.3,0-2.8-0.3-4.4-0.9
		c-2-0.7-3-1.6-3-2.7c0-0.3,0.1-0.8,0.4-1.5c0.3-0.7,0.4-1.3,0.4-1.7V17.6c-0.4-1.9-0.6-2.9-0.6-3c0-1.1,0.5-1.8,1.5-2
		c0.4-0.1,0.9-0.2,1.5-0.2c1.2,0,2.5,0.2,3.8,0.6c1.3,0.4,2.1,0.8,2.4,1.3c0.1,0.1,0.1,0.3,0.1,0.5c0,0.2-0.2,1-0.7,2.5v2.5
		c0.8-1.5,1.6-3,2.4-4.5c1.1-1.9,1.9-2.9,2.4-3c0.8-0.1,1.9,0.3,3.5,1.4C44.5,14.7,45.3,15.6,45.5,16.3z"/>
	<path class="st0" d="M58.8,42.8c0.1,1.2-0.3,2-1.3,2.3c-0.2,0-0.4,0.1-0.7,0.1c-1.2,0-2.8-0.3-4.6-0.8c-2-0.6-3.1-1.1-3.5-1.8
		c-0.2-0.3,0-0.8,0.5-1.6c0.3-0.5,0.5-1.5,0.5-2.9V16.3c-0.4-1.3-0.6-2.2-0.6-2.7c0-0.5,0.6-0.7,1.9-0.7c1,0,2.5,0.3,4.3,1
		c1.9,0.6,3,1.2,3.4,1.7c0.1,0.1,0.2,0.3,0.2,0.5c0,0.3-0.2,0.8-0.6,1.6c-0.4,0.8-0.6,1.3-0.6,1.7v20.9c0,0.3,0.2,0.8,0.6,1.3
		C58.5,42.1,58.7,42.5,58.8,42.8z M58.9,6.8C58.9,6.9,59,7,59,7.3c0,0.8-0.2,1.8-0.5,3c-0.3,1.3-0.7,2-1,2.2
		c-0.3,0.1-1.8-0.2-4.5-1.1c-2.6-0.9-4-1.5-4.2-1.9c-0.1-0.2-0.2-0.4-0.2-0.8c0-0.9,0.2-1.9,0.7-3c0.6-1.2,1.2-1.8,1.9-2
		c0.8-0.1,2.2,0.2,4.2,0.9C57.4,5.3,58.6,6.1,58.9,6.8z"/>
	<path class="st0" d="M84.7,33.7c0,0.7-0.6,1.5-1.7,2.7c-0.9,2-1.8,3.5-2.5,4.4c-1.6,2.1-3.6,3.3-5.9,3.7c-0.5,0.1-1,0.1-1.4,0.1
		c-1.9,0-4.3-0.9-7.2-2.8c-2.5-1.7-3.7-5.5-3.7-11.5c0-4.4,0.7-8.5,2-12.1c1.5-3.9,3.3-5.9,5.5-6.1c1.7-0.1,3.8,0.3,6.2,1.4
		c2.5,1,4.1,2.1,5,3.3c0.7,1,1.1,2.3,1.1,4c0,0.5,0,1.1-0.1,1.9C82,23.6,82,24.2,82,24.5c0.1,0.9,0.1,1.4,0.1,1.3
		c0,1.1-0.5,1.6-1.6,1.6c-1.2,0-2.4-0.2-3.5-0.6c-1.5-0.5-2.4-1.2-2.7-2.1c-0.1-0.3,0-0.7,0.4-1.2c0.4-0.5,0.6-1,0.5-1.3
		c0.1-0.2,0.1-0.8,0.1-1.8c0-2.1-0.4-3.2-1.1-3.2c-1.1-0.1-2,1.6-2.8,5c-0.7,3.1-1,6.4-1,10c0,4.3,0.5,6.5,1.5,6.8
		c0.8,0.2,1.8-0.7,3.1-2.6c1.1-1.6,1.7-2.7,1.7-3.3c0.1-0.6,0.2-1.2,0.2-1.7c0.2-1,0.9-1.4,1.9-1.4c0.6,0.1,1.7,0.5,3.3,1.2
		c1.6,0.7,2.4,1.3,2.5,1.6C84.7,33.1,84.7,33.4,84.7,33.7z"/>
	<path class="st0" d="M125.5,9.6c-0.3,0-0.7-0.1-1.1-0.3C123.8,9,123.4,9,123.1,9l-5.4,1.5v27.4c0,1,0.2,2.1,0.7,3.3
		c0.1,0.3,0.1,1-0.1,2c-0.2,1.1-0.5,1.8-1,2c-0.1,0-0.2,0.1-0.5,0.1c-1.1,0-2.7-0.2-4.8-0.7c-2.3-0.5-3.6-1-4.1-1.5
		c-0.5-0.6-0.5-1.5,0.1-2.5c0.5-0.9,0.7-1.6,0.7-2V12.8l-3.7,0.9c-0.2,0-0.5,0.2-0.9,0.4c-0.4,0.3-0.7,0.4-1,0.3
		c-0.8-0.2-1.9-1.2-3.3-3.1c-1.4-1.9-2-3.1-1.8-3.8c0.3-0.8,1.1-1.4,2.4-1.8c0.3-0.1,0.8-0.1,1.4-0.1c0.6,0.1,1,0.1,1.3,0l18.1-4.6
		c0.2,0,0.7-0.2,1.5-0.6c0.6-0.2,1.1-0.3,1.5-0.3c1,0.1,1.6,0.5,2,1.1c0.2,0.4,0.5,1.2,0.8,2.3c0.3,1.4,0.5,2.5,0.5,3.5
		c0,0.8-0.1,1.3-0.3,1.7C127.1,9.3,126.5,9.6,125.5,9.6z"/>
	<path class="st0" d="M143.2,16.3c0.1,0.6-0.1,1-0.6,1.4c-0.4,0.2-0.8,0.4-1.2,0.7c-2.2,3.3-5.1,7.8-8.9,13.5c0,5.5,0,8.4,0.1,8.5
		c0,0.2,0.2,0.6,0.4,1.3c0.2,0.7,0.3,1.3,0.3,1.7c0,0.7-0.3,1.1-0.9,1.4c-0.4,0.2-0.9,0.3-1.6,0.3c-1.3,0-2.8-0.3-4.4-0.9
		c-2-0.7-3-1.6-3-2.7c0-0.3,0.1-0.8,0.4-1.5c0.3-0.7,0.4-1.3,0.4-1.7V17.6c-0.4-1.9-0.6-2.9-0.6-3c0-1.1,0.5-1.8,1.5-2
		c0.4-0.1,0.9-0.2,1.5-0.2c1.2,0,2.5,0.2,3.8,0.6c1.3,0.4,2.1,0.8,2.4,1.3c0.1,0.1,0.1,0.3,0.1,0.5c0,0.2-0.2,1-0.7,2.5v2.5
		c0.8-1.5,1.6-3,2.4-4.5c1.1-1.9,1.9-2.9,2.4-3c0.8-0.1,1.9,0.3,3.5,1.4C142.2,14.7,143,15.6,143.2,16.3z"/>
	<path class="st0" d="M170.9,14.1c0.2,0.3,0.4,0.7,0.4,1c0,0.3-0.2,0.8-0.6,1.2c-0.4,0.5-0.6,0.8-0.6,0.9v24.2
		c0,0.2,0.1,0.6,0.3,1.1c0.2,0.5,0.3,0.9,0.3,1.1c0,0.6-0.5,1.1-1.6,1.4c-0.6,0.1-1.9-0.1-3.9-0.6c-2.2-0.6-3.4-1.1-3.6-1.7
		c-0.2-0.5-0.1-1.1,0.2-1.8c0.3-0.9,0.5-1.5,0.5-1.9c0-0.3-0.1-0.8-0.2-1.4c-0.5,1.7-1.2,3.3-2.2,4.6c-1.1,1.6-2.3,2.4-3.4,2.4
		c-1.2,0-2.7-0.4-4.6-1.2c-1.9-0.8-2.9-1.5-3.2-2.2c-1-2.2-1.5-10.4-1.5-24.6c-0.3-0.7-0.4-1.3-0.4-2c0-1.1,0.4-1.8,1.2-2.2
		c0.2-0.1,0.7-0.2,1.3-0.2c1.2,0,2.6,0.2,4.2,0.5c1.6,0.4,2.6,0.7,3,1.1c0.2,0.2,0.3,0.4,0.3,0.7c0,0.4-0.3,1-0.8,1.8
		c-0.5,0.9-0.8,1.5-0.8,1.8c-0.1,13.7,0,20.5,0.3,20.6c0.5,0.2,1.7-1.4,3.7-4.8c2-3.4,2.9-6,2.9-7.7V17c-0.5-0.5-0.7-1-0.7-1.7
		c0-1.4,0.6-2.3,1.8-2.8c0.1-0.1,0.3-0.1,0.6-0.1c0.9,0,2.3,0.2,4.1,0.7C169.7,13.5,170.7,13.9,170.9,14.1z"/>
	<path class="st0" d="M185.6,15.6c0.1,0.1,0.2,0.3,0.2,0.5c0,0.3-0.2,0.8-0.6,1.6c-0.4,0.8-0.6,1.3-0.6,1.7v25.4c0,0,0,0.3,0.1,0.7
		c0,0.5,0,0.8,0,1.1c0,3.3-0.9,5.4-2.7,6.6c-0.5,0.3-1.3,0.5-2.5,0.5c-2.5,0-4.9-0.3-7-1c-1-0.3-2.3-1-3.8-2.2
		c-1.8-1.3-2.7-2.4-2.7-3.2c0-0.5,0.3-0.9,1-1.4c0.1-0.1,0.3-0.1,0.7-0.1c2.1,0,3.8,0.3,5.2,1c0.3,0.4,0.7,0.8,0.9,1.2
		c0.6,0.7,1.3,1,2.2,1c0.5,0,0.7-2.1,0.7-6.4V16.3c-0.4-1.3-0.6-2.2-0.6-2.7c0-0.5,0.6-0.7,1.9-0.7c1.1,0,2.5,0.3,4.4,1
		C184.1,14.6,185.3,15.1,185.6,15.6z M186,6.8c0.1,0.2,0.2,0.6,0.2,1.1c0,0.9-0.1,1.8-0.4,2.7c-0.3,1-0.7,1.6-1.1,1.8
		c-0.3,0.1-1.8-0.2-4.4-1.1c-2.6-0.9-4-1.5-4.2-1.9c-0.1-0.2-0.2-0.4-0.2-0.8c0-0.9,0.2-1.9,0.7-3c0.6-1.2,1.2-1.8,1.9-2
		c0.8-0.1,2.2,0.2,4.2,0.9C184.5,5.3,185.7,6.1,186,6.8z"/>
	<path class="st0" d="M200.9,42.8c0.1,1.2-0.3,2-1.3,2.3c-0.2,0-0.4,0.1-0.7,0.1c-1.2,0-2.8-0.3-4.6-0.8c-2-0.6-3.1-1.1-3.5-1.8
		c-0.2-0.3,0-0.8,0.5-1.6c0.3-0.5,0.5-1.5,0.5-2.9V16.3c-0.4-1.3-0.6-2.2-0.6-2.7c0-0.5,0.6-0.7,1.9-0.7c1,0,2.5,0.3,4.3,1
		c1.9,0.6,3,1.2,3.4,1.7c0.1,0.1,0.2,0.3,0.2,0.5c0,0.3-0.2,0.8-0.6,1.6c-0.4,0.8-0.6,1.3-0.6,1.7v20.9c0,0.3,0.2,0.8,0.6,1.3
		C200.7,42.1,200.9,42.5,200.9,42.8z M201.1,6.8c0,0.1,0.1,0.2,0.1,0.4c0,0.8-0.2,1.8-0.5,3c-0.3,1.3-0.7,2-1,2.2
		c-0.3,0.1-1.8-0.2-4.5-1.1c-2.6-0.9-4-1.5-4.2-1.9c-0.1-0.2-0.2-0.4-0.2-0.8c0-0.9,0.2-1.9,0.7-3c0.6-1.2,1.2-1.8,1.9-2
		c0.8-0.1,2.2,0.2,4.2,0.9C199.6,5.3,200.7,6.1,201.1,6.8z"/>
	<path class="st0" d="M215.4,3.4c0,0.2-0.1,0.6-0.2,1c-0.2,0.4-0.3,0.7-0.3,0.8c-0.2,0.7-0.4,1.8-0.6,3.2v31.9
		c0,0.4,0.1,0.8,0.3,1.1c0.2,0.3,0.3,0.6,0.3,0.8c0,2.2-0.4,3.4-1.2,3.6c-0.3,0.1-1.4-0.2-3.3-0.7c-1.9-0.5-3-1-3.4-1.3
		c-0.8-0.7-1.1-1.3-1.1-1.8c0-0.1,0.1-0.3,0.2-0.5c0.1-0.2,0.2-0.5,0.2-0.9V4c0-0.2-0.1-0.4-0.2-0.7c-0.1-0.2-0.2-0.4-0.2-0.6
		c0.1-0.8,0.7-1.4,1.9-1.7c0.3-0.1,1.1-0.1,2.2,0c1.3,0.1,2.4,0.3,3.3,0.6C214.7,2,215.4,2.6,215.4,3.4z"/>
	<path class="st0" d="M229.8,3.4c0,0.2-0.1,0.6-0.2,1c-0.2,0.4-0.3,0.7-0.3,0.8c-0.2,0.7-0.4,1.8-0.6,3.2v31.9
		c0,0.4,0.1,0.8,0.3,1.1c0.2,0.3,0.3,0.6,0.3,0.8c0,2.2-0.4,3.4-1.2,3.6c-0.3,0.1-1.4-0.2-3.3-0.7c-1.9-0.5-3-1-3.4-1.3
		c-0.8-0.7-1.1-1.3-1.1-1.8c0-0.1,0.1-0.3,0.2-0.5c0.1-0.2,0.2-0.5,0.2-0.9V4c0-0.2-0.1-0.4-0.2-0.7c-0.1-0.2-0.2-0.4-0.2-0.6
		c0.1-0.8,0.7-1.4,1.9-1.7c0.3-0.1,1.1-0.1,2.2,0c1.3,0.1,2.4,0.3,3.3,0.6C229.1,2,229.8,2.6,229.8,3.4z"/>
	<path class="st0" d="M251.2,14c1.9,0.9,3.4,2.7,4.4,5.5c0.9,2.5,1.4,5.4,1.4,8.8c0,4.7-0.8,8.7-2.4,12.2c-1.8,3.7-4,5.3-6.6,5
		c-1-0.2-2.4-0.5-4.4-0.9c-1.4-0.2-2.7-0.4-3.8-0.8c-2-0.5-3.6-2.2-4.7-5c-1.1-2.6-1.6-5.7-1.6-9.3c0-3.6,0.6-6.8,1.7-9.7
		c1.2-3.2,3-5.4,5.3-6.7c0.4-0.2,0.9-0.3,1.6-0.3c0.7,0,2.1,0.2,4.1,0.7C247.4,13.4,249.1,13.6,251.2,14z M245.4,18.7
		c-0.9,0-1.8,1.1-2.6,3.4c-0.8,2.3-1.2,4.4-1.2,6.5c0,2.5,0.3,5,0.9,7.4c0.7,2.6,1.4,4.1,2.3,4.3c1.1,0.2,2.1-1,3-3.7
		c0.8-2.6,1.2-5.5,1.2-8.7c0-1.8-0.2-3.5-0.7-5.3C247.7,20,246.7,18.7,245.4,18.7z"/>
</g>
</svg>
